<svg width="1710" height="760" xmlns="http://www.w3.org/2000/svg" xmlns:xlink="http://www.w3.org/1999/xlink" xml:space="preserve" overflow="hidden"><defs><clipPath id="clip0"><rect x="1347" y="857" width="1710" height="760"/></clipPath></defs><g clip-path="url(#clip0)" transform="translate(-1347 -857)"><path d="M3053 1449.25C3053 1542.75 3031 1617 2940.25 1617L1460.75 1617C1367.25 1617 1348 1542.75 1348 1449.25L1348 1025.75C1348 932.25 1422.25 858 1515.75 858L2885.25 858C2978.75 858 3053 932.25 3053 1025.75L3053 1449.25Z" fill="#595959" fill-rule="evenodd" fill-opacity="1"/><path d="M1348 1026C1348 932.361 1422.25 858 1515.75 858L2885.25 858C2978.75 858 3053 932.361 3053 1026" fill="#979BAD" fill-rule="evenodd" fill-opacity="1"/><path d="M2945 1446.5C2945 1465.46 2931.25 1479 2912.01 1479L1487.99 1479C1468.75 1479 1455 1465.46 1455 1446.5 1455 1427.54 1468.75 1414 1487.99 1414L2912.01 1414C2931.25 1414 2945 1427.54 2945 1446.5Z" fill="#979BAD" fill-rule="evenodd" fill-opacity="1"/><path d="M1455 1446 1455 1446C1455 1427.33 1468.75 1414 1487.99 1414L2912.01 1414C2931.25 1414 2945 1427.33 2945 1446" fill="#000000" fill-rule="evenodd" fill-opacity="1"/><path d="M2945 1540C2945 1559.25 2931.25 1573 2912.01 1573L1487.99 1573C1468.75 1573 1455 1559.25 1455 1540 1455 1520.75 1468.75 1507 1487.99 1507L2912.01 1507C2931.25 1507 2945 1520.75 2945 1540Z" fill="#979BAD" fill-rule="evenodd" fill-opacity="1"/><path d="M1455 1540 1455 1540C1455 1520.75 1468.75 1507 1487.99 1507L2912.01 1507C2931.25 1507 2945 1520.75 2945 1540" fill="#000000" fill-rule="evenodd" fill-opacity="1"/><path d="M1848.75 1304.06C1848.75 1312.28 1840.5 1320.5 1832.25 1320.5L1483 1320.5C1474.75 1320.5 1466.5 1312.28 1466.5 1304.06L1466.5 1188.94C1466.5 1180.72 1474.75 1172.5 1483 1172.5L1835 1172.5C1843.25 1172.5 1851.5 1180.72 1851.5 1188.94L1851.5 1304.06 1848.75 1304.06Z" stroke="#979BAD" stroke-width="3.4375" stroke-linecap="butt" stroke-linejoin="miter" stroke-miterlimit="8" stroke-opacity="1" fill="#5A6077" fill-rule="evenodd" fill-opacity="1"/><path d="M1831.51 1174C1839.76 1174 1848 1182.28 1848 1190.56L1848 1306.44C1848 1314.72 1839.76 1323 1831.51 1323L1482.49 1323C1474.24 1323 1466 1314.72 1466 1306.44" fill="#000000" fill-rule="evenodd" fill-opacity="1"/></g></svg>