<?xml version="1.0" encoding="UTF-8"?>
<svg width="88px" height="51px" viewBox="0 0 88 51" version="1.1" xmlns="http://www.w3.org/2000/svg" xmlns:xlink="http://www.w3.org/1999/xlink">
    <title>FloodSensor-Off</title>
    <g id="Icons" stroke="none" stroke-width="1" fill="none" fill-rule="evenodd">
        <g id="FloodSensor-Off" fill="#979BAD" fill-rule="nonzero">
            <path d="M17.9867835,8.61211673 C19.6670012,6.98300702 22.4008793,6.98300702 24.0814781,8.61211673 C28.7327476,13.1219062 36.301157,13.1219062 40.9524265,8.61211673 C41.7664367,7.82286664 42.8486722,7.38825268 43.999869,7.38825268 C45.1510658,7.38825268 46.2333013,7.82305135 47.0473116,8.61211673 C51.6985811,13.1219062 59.2669905,13.1219062 63.91826,8.61211673 C64.7322702,7.82286664 65.8145057,7.38825268 66.9657025,7.38825268 C68.1168993,7.38825268 69.1991348,7.82305135 70.0131451,8.61211673 C72.2663895,10.7968231 75.2622063,12 78.448524,12 C81.6352227,12 84.6308491,10.7968231 86.8840935,8.61211673 C88.3720958,7.16937569 88.3719053,4.8304396 86.883903,3.38788327 C85.3959006,1.94514222 82.983588,1.94514222 81.4957761,3.38788327 C80.6819563,4.17713336 79.5997208,4.61174732 78.448524,4.61174732 C77.2973272,4.61174732 76.2150917,4.17694865 75.401272,3.38806797 C73.1482181,1.20336165 70.1522107,0.000184706317 66.965893,0 C66.965512,0 66.965893,0 66.9657025,0 C63.7793848,0 60.7833775,1.20336165 58.5301331,3.38788327 C56.8499153,5.01717769 54.1154657,5.01680827 52.435629,3.38806797 C50.1825751,1.20336165 47.1865677,0.000184706317 44.00025,0 C43.999869,0 44.00025,0 44.0000595,0 C40.8137418,0 37.8177345,1.20336165 35.5644901,3.38788327 C33.8842723,5.01717769 31.1498227,5.01699298 29.469986,3.38788327 C24.818526,-1.12209088 17.2501166,-1.12209088 12.5988471,3.38788327 C10.9186293,5.01699298 8.18456072,5.01699298 6.50396196,3.38788327 C5.01595959,1.94514222 2.60364696,1.94514222 1.11583509,3.38788327 C-0.371976778,4.83062431 -0.371976778,7.1695604 1.11602559,8.61211673 C5.76691406,13.1219062 13.335133,13.1219062 17.9867835,8.61211673 Z" id="Path"></path>
            <path d="M81.4954233,22.3878833 C80.681607,23.1771334 79.5993762,23.6117473 78.4481844,23.6117473 C77.2969926,23.6117473 76.2147617,23.1769487 75.4009455,22.388068 C73.1479014,20.2033617 70.151907,19.0001847 66.9656031,19 C66.9652221,19 66.9656031,19 66.9654126,19 C63.7791087,19 60.7831143,20.2033617 58.5298797,22.3878833 C56.8496692,24.0171777 54.1152314,24.0168083 52.4354019,22.388068 C50.1823578,20.2033617 47.1863634,19.0001847 44.0000595,19 C43.9996785,19 44.0000595,19 43.999869,19 C40.8135651,19 37.8175708,20.2033617 35.5643361,22.3878833 C33.8841256,24.0171777 31.1496879,24.016993 29.4698584,22.3878833 C24.8184185,17.8779091 17.2500419,17.8779091 12.5987925,22.3878833 C10.9185821,24.016993 8.18452528,24.016993 6.5039338,22.3878833 C5.01593787,20.9451422 2.60363568,20.9451422 1.11583026,22.3878833 C-0.371975168,23.8306243 -0.371975168,26.1695604 1.11602076,27.6121167 C5.76727009,32.1219062 13.3354563,32.1219062 17.9870866,27.6121167 C19.6672971,25.983007 22.4011633,25.983007 24.0817548,27.6121167 C28.7330042,32.1219062 36.3013808,32.1219062 40.9526302,27.6121167 C41.7666369,26.8228666 42.8488677,26.3882527 44.0000595,26.3882527 C45.1512514,26.3882527 46.2334822,26.8230513 47.0474889,27.6121167 C51.6987382,32.1219062 59.2671149,32.1219062 63.9183642,27.6121167 C64.732371,26.8228666 65.8146018,26.3882527 66.9657936,26.3882527 C68.1169854,26.3882527 69.1992162,26.8230513 70.013223,27.6121167 C72.2664576,29.7968231 75.2622615,31 78.4485654,31 C81.6352503,31 84.6308637,29.7968231 86.8840983,27.6121167 C88.3720942,26.1693757 88.3719037,23.8304396 86.8839078,22.3878833 C85.3955309,20.9451422 82.9832287,20.9451422 81.4954233,22.3878833 Z" id="Path"></path>
            <path d="M81.4954233,42.3878833 C80.681607,43.1771334 79.5993762,43.6117473 78.4481844,43.6117473 C77.2969926,43.6117473 76.2147617,43.1769487 75.4009455,42.388068 C73.1479014,40.2033617 70.151907,39.0001847 66.9656031,39 C66.9652221,39 66.9656031,39 66.9654126,39 C63.7791087,39 60.7831143,40.2033617 58.5298797,42.3878833 C56.8496692,44.0171777 54.1152314,44.0168083 52.4354019,42.388068 C50.1823578,40.2033617 47.1863634,39.0001847 44.0000595,39 C43.9996785,39 44.0000595,39 43.999869,39 C40.8135651,39 37.8175708,40.2033617 35.5643361,42.3878833 C33.8841256,44.016993 31.1496879,44.0171777 29.4698584,42.3878833 C24.8184185,37.8779091 17.2500419,37.8779091 12.5987925,42.3878833 C10.9185821,44.016993 8.18452528,44.016993 6.5039338,42.3878833 C5.01593787,40.9451422 2.60363568,40.9451422 1.11583026,42.3878833 C-0.371975168,43.8306243 -0.371975168,46.1695604 1.11602076,47.6121167 C5.76727009,52.1219062 13.3354563,52.1219062 17.9870866,47.6121167 C19.6672971,45.983007 22.4011633,45.983007 24.0817548,47.6121167 C28.7330042,52.1219062 36.3013808,52.1219062 40.9526302,47.6121167 C41.7666369,46.8228666 42.8488677,46.3882527 44.0000595,46.3882527 C45.1512514,46.3882527 46.2334822,46.8230513 47.0474889,47.6121167 C51.6987382,52.1219062 59.2671149,52.1219062 63.9183642,47.6121167 C64.732371,46.8228666 65.8146018,46.3882527 66.9657936,46.3882527 C68.1169854,46.3882527 69.1992162,46.8230513 70.013223,47.6121167 C72.2664576,49.7968231 75.2622615,51 78.4485654,51 C81.6352503,51 84.6308637,49.7968231 86.8840983,47.6121167 C88.3720942,46.1693757 88.3719037,43.8304396 86.8839078,42.3878833 C85.3955309,40.9451422 82.9832287,40.9451422 81.4954233,42.3878833 Z" id="Path"></path>
        </g>
    </g>
</svg>