<svg width="1114" height="1591" xmlns="http://www.w3.org/2000/svg" xmlns:xlink="http://www.w3.org/1999/xlink" xml:space="preserve" overflow="hidden"><defs><clipPath id="clip0"><rect x="1393" y="311" width="1114" height="1591"/></clipPath></defs><g clip-path="url(#clip0)" transform="translate(-1393 -311)"><rect x="1425" y="661" width="1028" height="931" fill="#979BAD" fill-opacity="1"/><rect x="1397" y="312" width="1084" height="354" fill="#5A6077" fill-opacity="1"/><rect x="1397" y="1546" width="1084" height="353" fill="#5A6077" fill-opacity="1"/><path d="M1822 1723C1822 1657.83 1874.38 1605 1939 1605 2003.62 1605 2056 1657.83 2056 1723 2056 1788.17 2003.62 1841 1939 1841 1874.38 1841 1822 1788.17 1822 1723Z" fill="#979BAD" fill-rule="evenodd" fill-opacity="1"/><path d="M2201.61 876 2201.61 876 1717.49 876C1518.86 1157.97 1510.25 1374.82 1654.45 1533L2257.07 1533C2388.16 1377.26 2384.11 1151.88 2201.61 876Z" fill="#D0CECE" fill-rule="evenodd" fill-opacity="1"/><path d="M1638.71 1176 2269.63 1176C2295.14 1279.23 2276.58 1373.49 2225.55 1470L1687.42 1470C1620.1 1369 1610.88 1279.23 1638.71 1176Z" fill="#5A6077" fill-rule="evenodd" fill-opacity="1"/><path d="M2250.97 966.807 2239.12 1032.1C2325.89 1027.68 2401.58 1106.94 2444.96 1261.33 2447.72 1271.51 2508.48 1253.26 2505.49 1241.29 2466.85 1094.14 2365.15 976.265 2250.97 966.807Z" fill="#D1CECE" fill-rule="evenodd" fill-opacity="1"/><rect x="1833" y="608" width="223" height="107" fill="#5A6077" fill-opacity="1"/><path d="M1924 717C1924 700.432 1932.95 687 1944 687 1955.05 687 1964 700.432 1964 717 1964 733.569 1955.05 747 1944 747 1932.95 747 1924 733.569 1924 717Z" fill="#5A6077" fill-rule="evenodd" fill-opacity="1"/></g></svg>