<svg width="1962" height="463" xmlns="http://www.w3.org/2000/svg" xmlns:xlink="http://www.w3.org/1999/xlink" xml:space="preserve" overflow="hidden"><defs><clipPath id="clip0"><rect x="256" y="206" width="1962" height="463"/></clipPath></defs><g clip-path="url(#clip0)" transform="translate(-256 -206)"><path d="M1461 368.077C1461 368.077 1453.09 350.183 1403.6 318.361 1369.96 296.486 1350.16 292.505 1330.37 290.52 1257.14 280.573 1037.42 260.698 1037.42 260.698 982.001 258.712 991.902 216.947 991.902 216.947 976.066 210.982 960.228 209 944.393 209 859.286 209 790 280.591 790 280.591 983.977 358.144 1191.82 384 1326.42 384 1393.68 383.989 1443.17 378.023 1460.99 368.077ZM958.234 306.432C946.361 306.432 936.461 296.486 936.461 284.558 936.461 272.626 946.361 262.682 958.234 262.682 970.107 262.682 980.007 272.626 980.007 284.558 980.007 296.486 970.107 306.432 958.234 306.432ZM1069.08 288.538C1126.47 288.538 1298.69 296.486 1360.05 312.398 1369.95 314.38 1387.76 324.327 1395.67 330.293 1417.44 344.22 1431.29 356.148 1439.22 362.114 1417.44 366.095 1381.82 370.062 1326.38 370.062 1282.84 370.062 1168.03 366.081 1027.5 338.24 1001.78 304.448 1047.3 288.538 1069.07 288.538Z" fill="#979BAD" fill-rule="evenodd" fill-opacity="1"/><path d="M699 388C621.555 388 560 449.334 560 526.5 560 603.667 621.555 665 699 665 776.445 665 838 603.667 838 526.5 838 449.334 776.445 388 699 388ZM699 599.72C659.288 599.72 625.53 566.083 625.53 526.514 625.53 486.945 659.285 453.309 699 453.309 738.712 453.309 772.47 486.945 772.47 526.514 772.47 566.069 738.715 599.72 699 599.72Z" fill="#5A6077" fill-rule="evenodd" fill-opacity="1"/><path d="M725 525.993C725 540.352 713.352 552 699 552 684.645 552 673 540.352 673 525.993 673 511.637 684.645 500 699 500 713.352 500 725 511.637 725 525.993" fill="#5A6077" fill-rule="evenodd" fill-opacity="1"/><path d="M1829.5 431C1766.3 431 1713 482.558 1713 548 1713 611.467 1764.34 665.001 1829.5 665.001 1892.7 665.001 1946 613.443 1946 548 1946 482.558 1892.68 431 1829.5 431ZM1829.5 607.497C1795.93 607.497 1768.29 579.734 1768.29 546.024 1768.29 512.315 1795.93 484.551 1829.5 484.551 1863.07 484.551 1890.71 512.315 1890.71 546.024 1890.71 581.713 1863.07 607.497 1829.5 607.497Z" fill="#5A6077" fill-rule="evenodd" fill-opacity="1"/><path d="M1851 548C1851 560.15 1841.37 570 1829.5 570 1817.62 570 1808 560.15 1808 548 1808 535.85 1817.62 526 1829.5 526 1841.37 526 1851 535.85 1851 548" fill="#5A6077" fill-rule="evenodd" fill-opacity="1"/><path d="M1022 588 958 588 958 607 1022 607C1028 607 1032 603.195 1032 597.5 1032 591.802 1028 588 1022 588Z" fill="#979BAD" fill-rule="evenodd" fill-opacity="1"/><path d="M1022 556 958 556 958 576 1022 576C1028 576 1032 571.998 1032 566 1032 559.988 1028 556 1022 556Z" fill="#979BAD" fill-rule="evenodd" fill-opacity="1"/><path d="M1022 522 958 522 958 542 1022 542C1028 542 1032 537.995 1032 532 1032 528.013 1028 522 1022 522Z" fill="#979BAD" fill-rule="evenodd" fill-opacity="1"/><path d="M1022 490 958 490 958 510 1022 510C1028 510 1032 505.994 1032 500 1032 493.988 1028 490 1022 490Z" fill="#979BAD" fill-rule="evenodd" fill-opacity="1"/><path d="M1022.01 459 974.008 459C966.015 464.998 962.011 473.002 960 479L1022 479C1028 479 1032 474.998 1032 469 1032.01 463.002 1028.01 459 1022.01 459Z" fill="#979BAD" fill-rule="evenodd" fill-opacity="1"/><path d="M2204.14 597.295 2200.18 595.316 2196.21 591.35 2206.12 555.684 2210.08 555.684 2218 539.829C2196.21 514.062 2136.78 484.338 2087.26 460.563 2095.18 452.643 2093.21 446.683 2093.21 446.683 2095.18 416.963 2033.78 409.025 1998.13 407.05L1984.26 385.25 1473.21 385.25C1415.78 411.018 1083 414.971 789.841 298.046 496.687 181.122 270.872 218.78 270.872 218.78L257 244.548 296.612 242.569C344.155 276.246 306.519 311.912 306.519 311.912 393.679 303.992 358.018 369.378 358.018 369.378 451.115 371.356 407.537 432.803 407.537 432.803 461.022 448.662 445.176 496.229 445.176 496.229L433.291 510.109 433.291 581.454C433.291 627.033 451.115 631 451.115 631L550.154 631C577.885 631 562.039 593.342 556.097 585.422 550.154 579.48 546.189 525.963 546.189 525.963 546.189 438.759 607.59 369.406 694.749 369.406 781.907 369.406 851.224 440.752 851.224 525.963 851.224 525.963 855.189 571.542 833.401 591.364 811.612 613.164 821.519 630.997 837.366 630.997L861.146 630.982 1702.98 630.982C1726.75 630.982 1712.89 601.262 1706.95 595.316 1701.01 589.375 1699.03 545.771 1699.03 545.771 1699.03 472.447 1758.46 414.967 1829.77 414.967 1903.05 414.967 1960.5 474.425 1960.5 545.771 1960.5 545.771 1958.53 583.429 1942.68 599.284 1924.86 617.117 1936.74 629.008 1950.6 629.008L2214.04 629.008C2225.91 619.095 2204.12 597.295 2204.12 597.295ZM1601.98 617.12 948.318 617.12 948.318 496.229C948.318 428.85 1013.68 442.716 1037.45 448.662 1330.6 514.062 1617.82 587.386 1617.82 587.386ZM2006.06 571.528C2002.1 569.549 2002.1 565.582 2004.09 561.615L2037.76 498.19C2039.73 494.222 2043.7 494.222 2047.67 496.211 2051.63 498.19 2051.63 502.157 2049.64 506.124L2015.97 569.549C2013.98 573.517 2010.01 573.517 2006.06 571.528ZM2029.83 583.429C2025.86 581.451 2025.86 577.484 2027.85 573.517L2061.52 510.091C2063.5 506.124 2067.46 506.124 2071.43 508.116 2075.4 510.091 2075.4 514.058 2073.41 518.026L2039.74 581.451C2037.74 585.408 2033.79 585.408 2029.83 583.429ZM2099.16 531.895 2063.5 595.32C2061.52 599.287 2057.56 599.287 2053.59 597.299 2049.63 595.32 2049.63 591.353 2051.62 587.386L2085.29 523.96C2087.26 519.993 2091.23 519.993 2095.2 521.982 2099.16 523.975 2101.14 527.942 2099.16 531.895Z" fill="#979BAD" fill-rule="evenodd" fill-opacity="1"/></g></svg>