<svg width="1764" height="1233" xmlns="http://www.w3.org/2000/svg" xmlns:xlink="http://www.w3.org/1999/xlink" xml:space="preserve" overflow="hidden"><defs><clipPath id="clip0"><rect x="4620" y="1810" width="1764" height="1233"/></clipPath></defs><g clip-path="url(#clip0)" transform="translate(-4620 -1810)"><path d="M6272.09 2019.2C6247 2012.25 6222.93 2013.64 6201.6 2020.99 6187.06 2026 6171.86 2017.05 6165.71 2002.95 6138.51 1940.6 6076.44 1897 6004.09 1897 5926.92 1897 5861.49 1946.63 5837.53 2015.66L5837.53 2015.66C5834.21 2015.39 5831.02 2014.67 5827.64 2014.67 5758.86 2014.67 5703.86 2073.71 5710.55 2143.89 5716.38 2205.07 5771.25 2250 5832.69 2250L6239.36 2250C6313.06 2250 6370.92 2182.22 6354.05 2105.58 6344.98 2064.41 6312.7 2030.45 6272.09 2019.2Z" fill="#E4EAF8" fill-rule="evenodd" fill-opacity="1"/><path d="M5521.82 2337.99C5581.76 2302.01 5622 2236.55 5622 2161.53 5622 2047.82 5529.88 1955.64 5416.24 1955.64 5404.01 1955.64 5392.09 1956.91 5380.44 1958.96L5380.46 1958.87C5368.36 1961.05 5355.74 1955.86 5349.06 1945.53 5307.17 1880.85 5234.47 1838 5151.7 1838 5054.12 1838 4970.64 1897.55 4935.09 1982.26 4928.84 1997.17 4912.09 2005.46 4897.22 1999.11 4864.05 1984.95 4825.68 1980.64 4785.67 1990.12 4721.01 2005.44 4669.48 2058.53 4655.95 2123.62 4632.24 2237.65 4718.59 2338 4828.36 2338L5521.82 2338 5521.82 2337.99Z" fill="#E4EAF8" fill-rule="evenodd" fill-opacity="1"/><path d="M5857.1 2161.75C5857.1 2096.76 5909.78 2044.08 5974.77 2044.08 5978.16 2044.08 5981.35 2044.8 5984.66 2045.08 6004.08 1989.16 6050.93 1946.47 6109 1932.09 6079.66 1910.26 6043.59 1897 6004.19 1897 5927 1897 5861.54 1946.63 5837.57 2015.66 5834.25 2015.39 5831.06 2014.67 5827.68 2014.67 5762.69 2014.67 5710 2067.35 5710 2132.33 5710 2197.32 5762.69 2250 5827.68 2250 5846.2 2250 5870.4 2250 5897.68 2250 5873.01 2228.43 5857.1 2197.09 5857.1 2161.75Z" fill="#D5DCED" fill-rule="evenodd" fill-opacity="1"/><path d="M4832.2 2182.44C4845.72 2117.36 4897.22 2064.26 4961.84 2048.94 5001.84 2039.46 5040.17 2043.77 5073.32 2057.94 5088.18 2064.28 5104.92 2056 5111.17 2041.09 5144.26 1962.17 5219.11 1905.76 5308 1898.31 5266.43 1860.93 5211.66 1838 5151.38 1838 5053.87 1838 4970.44 1897.55 4934.91 1982.26 4928.67 1997.17 4911.92 2005.46 4897.07 1999.11 4863.92 1984.95 4825.57 1980.64 4785.58 1990.12 4720.97 2005.44 4669.47 2058.53 4655.94 2123.62 4632.25 2237.65 4718.55 2338 4828.25 2338L4873.46 2338C4837.81 2298.22 4819.76 2242.3 4832.2 2182.44Z" fill="#D5DCED" fill-rule="evenodd" fill-opacity="1"/><path d="M6095.1 2428.3C6058.93 2424.24 6024.16 2427.21 5991.49 2435.54 5976.6 2439.34 5961.12 2430.8 5956.94 2416.02 5901.16 2218.68 5719.83 2074 5504.5 2074 5333.49 2074 5183.8 2165.19 5101.48 2301.57 5094.93 2312.41 5082.56 2317.81 5070.12 2315.41 5011.79 2304.13 4948.71 2306.39 4881.88 2333.17 4748.82 2386.49 4654.27 2512.65 4652.04 2655.88 4648.97 2853.14 4808.06 3014 5004.76 3014L6052.66 3014C6181.9 3014 6301.29 2934.69 6341.97 2812.1 6402.57 2629.48 6271.8 2448.13 6095.1 2428.3Z" fill="#D5DCED" fill-rule="evenodd" fill-opacity="1"/><path d="M4945.88 2714.63C4948.11 2571.4 5042.62 2445.24 5175.62 2391.92 5242.43 2365.13 5305.48 2362.87 5363.79 2374.15 5376.23 2376.56 5388.58 2371.16 5395.13 2360.31 5467.64 2240.16 5592.44 2155.17 5738 2136.63 5669.11 2096.97 5589.38 2074 5504.15 2074 5333.21 2074 5183.58 2165.19 5101.29 2301.57 5094.75 2312.41 5082.39 2317.81 5069.95 2315.41 5011.64 2304.13 4948.59 2306.39 4881.78 2333.17 4748.78 2386.49 4654.27 2512.65 4652.04 2655.88 4648.97 2853.14 4808 3014 5004.61 3014L5103.84 3014C5007.23 2949.91 4943.93 2839.66 4945.88 2714.63Z" fill="#C7CFE2" fill-rule="evenodd" fill-opacity="1"/><path d="M5621.5 2369C5525.28 2369 5447 2447.36 5447 2543.67L5447 2661.33C5447 2757.64 5525.28 2836 5621.5 2836 5717.72 2836 5796 2757.64 5796 2661.33L5796 2543.67C5796 2447.35 5717.72 2369 5621.5 2369ZM5740.89 2661.33C5740.89 2727.23 5687.33 2780.84 5621.5 2780.84 5555.67 2780.84 5502.11 2727.22 5502.11 2661.33L5502.11 2543.66C5502.11 2477.77 5555.67 2424.16 5621.5 2424.16 5687.33 2424.16 5740.89 2477.77 5740.89 2543.66L5740.89 2661.33Z" fill="#000000" fill-rule="evenodd" fill-opacity="1"/><path d="M5402.98 2727.54C5390.8 2718.39 5373.51 2720.85 5364.36 2733.02 5341.53 2763.41 5306.66 2780.84 5268.71 2780.84 5202.8 2780.84 5149.18 2727.22 5149.18 2661.33L5149.18 2543.66C5149.18 2477.77 5202.8 2424.16 5268.71 2424.16 5306.62 2424.16 5341.46 2441.55 5364.3 2471.89 5373.46 2484.06 5390.75 2486.5 5402.93 2477.34 5415.1 2468.18 5417.54 2450.89 5408.38 2438.72 5375.03 2394.41 5324.12 2369 5268.71 2369 5172.38 2369 5094 2447.36 5094 2543.67L5094 2661.33C5094 2757.64 5172.38 2836 5268.71 2836 5324.17 2836 5375.11 2810.54 5408.47 2766.16 5417.62 2753.97 5415.16 2736.68 5402.98 2727.54Z" fill="#000000" fill-rule="evenodd" fill-opacity="1"/></g></svg>