<svg width="1765" height="1238" xmlns="http://www.w3.org/2000/svg" xmlns:xlink="http://www.w3.org/1999/xlink" xml:space="preserve" overflow="hidden"><defs><clipPath id="clip0"><rect x="4977" y="45" width="1765" height="1238"/></clipPath></defs><g clip-path="url(#clip0)" transform="translate(-4977 -45)"><path d="M6626.09 259.197C6601 252.249 6576.93 253.638 6555.6 260.99 6541.06 266.002 6525.86 257.047 6519.71 242.947 6492.51 180.603 6430.44 137 6358.09 137 6280.92 137 6215.49 186.633 6191.53 255.664L6191.53 255.664C6188.21 255.386 6185.02 254.667 6181.64 254.667 6112.86 254.667 6057.86 313.708 6064.55 383.892 6070.38 445.07 6125.25 490 6186.69 490L6593.36 490C6667.06 490 6724.92 422.217 6708.05 345.58 6698.98 304.41 6666.7 270.453 6626.09 259.197Z" fill="#E4EAF8" fill-rule="evenodd" fill-opacity="1"/><path d="M5875.82 577.993C5935.76 542.01 5976 476.553 5976 401.525 5976 287.82 5883.88 195.643 5770.24 195.643 5758.01 195.643 5746.09 196.912 5734.44 198.959L5734.46 198.869C5722.36 201.05 5709.74 195.856 5703.06 185.534 5661.17 120.845 5588.47 78 5505.7 78 5408.12 78 5324.64 137.551 5289.09 222.265 5282.84 237.171 5266.09 245.46 5251.22 239.114 5218.05 224.954 5179.68 220.641 5139.67 230.12 5075.01 245.439 5023.48 298.531 5009.95 363.623 4986.24 477.647 5072.59 578 5182.36 578L5875.82 578 5875.82 577.993Z" fill="#E4EAF8" fill-rule="evenodd" fill-opacity="1"/><path d="M6211.1 401.749C6211.1 336.764 6263.78 284.083 6328.77 284.083 6332.16 284.083 6335.35 284.798 6338.66 285.08 6358.08 229.155 6404.93 186.475 6463 172.092 6433.66 150.265 6397.59 137 6358.19 137 6281 137 6215.54 186.633 6191.57 255.664 6188.25 255.386 6185.06 254.667 6181.68 254.667 6116.69 254.667 6064 307.347 6064 372.333 6064 437.319 6116.69 490 6181.68 490 6200.2 490 6224.4 490 6251.68 490 6227.01 468.431 6211.1 437.092 6211.1 401.749Z" fill="#D5DCED" fill-rule="evenodd" fill-opacity="1"/><path d="M5186.47 422.444C5200.02 357.356 5251.6 304.261 5316.31 288.941 5356.37 279.459 5394.76 283.772 5427.97 297.936 5442.84 304.282 5459.61 295.996 5465.87 281.086 5499.01 202.175 5573.97 145.764 5663 138.314 5621.37 100.934 5566.52 78 5506.14 78 5408.48 78 5324.93 137.551 5289.35 222.265 5283.09 237.171 5266.32 245.46 5251.44 239.114 5218.24 224.954 5179.84 220.641 5139.79 230.12 5075.07 245.439 5023.49 298.531 5009.95 363.623 4986.22 477.647 5072.65 578 5182.52 578L5227.8 578C5192.09 538.219 5174.02 482.301 5186.47 422.444Z" fill="#D5DCED" fill-rule="evenodd" fill-opacity="1"/><path d="M6449.1 667.674C6412.93 663.609 6378.16 666.59 6345.49 674.926 6330.6 678.726 6315.12 670.177 6310.94 655.38 6255.16 457.833 6073.83 313 5858.5 313 5687.49 313 5537.8 404.291 5455.48 540.809 5448.93 551.661 5436.56 557.071 5424.12 554.664 5365.79 543.37 5302.71 545.637 5235.88 572.446 5102.82 625.823 5008.27 752.114 5006.04 895.503 5002.97 1092.97 5162.06 1254 5358.76 1254L6406.66 1254C6535.9 1254 6655.29 1174.61 6695.97 1051.89 6756.57 869.075 6625.8 687.526 6449.1 667.674Z" fill="#D5DCED" fill-rule="evenodd" fill-opacity="1"/><path d="M5300.15 954.314C5302.38 810.925 5396.98 684.634 5530.1 631.257 5596.97 604.444 5660.08 602.181 5718.45 613.474 5730.89 615.882 5743.26 610.476 5749.81 599.62 5822.39 479.34 5947.3 394.256 6093 375.697 6024.04 335.996 5944.25 313 5858.93 313 5687.84 313 5538.07 404.287 5455.7 540.809 5449.16 551.661 5436.78 557.071 5424.34 554.664 5365.97 543.37 5302.86 545.633 5235.99 572.446 5102.87 625.823 5008.28 752.114 5006.04 895.503 5002.97 1092.97 5162.14 1254 5358.94 1254L5458.26 1254C5361.56 1189.84 5298.2 1079.48 5300.15 954.314Z" fill="#C7CFE2" fill-rule="evenodd" fill-opacity="1"/><path d="M5976.5 609C5880.28 609 5802 687.356 5802 783.665L5802 901.335C5802 997.644 5880.28 1076 5976.5 1076 6072.72 1076 6151 997.644 6151 901.335L6151 783.665C6151 687.352 6072.72 609 5976.5 609ZM6095.89 901.331C6095.89 967.227 6042.33 1020.84 5976.5 1020.84 5910.67 1020.84 5857.11 967.223 5857.11 901.331L5857.11 783.662C5857.11 717.766 5910.67 664.155 5976.5 664.155 6042.33 664.155 6095.89 717.77 6095.89 783.662L6095.89 901.331Z" fill="#000000" fill-rule="evenodd" fill-opacity="1"/><path d="M5757.98 967.537C5745.8 958.393 5728.51 960.849 5719.36 973.023 5696.53 1003.41 5661.66 1020.84 5623.71 1020.84 5557.8 1020.84 5504.18 967.223 5504.18 901.331L5504.18 783.662C5504.18 717.766 5557.8 664.155 5623.71 664.155 5661.62 664.155 5696.46 681.552 5719.3 711.887 5728.46 724.058 5745.75 726.501 5757.93 717.34 5770.1 708.179 5772.54 690.889 5763.38 678.721 5730.03 634.412 5679.12 609 5623.71 609 5527.38 609 5449 687.356 5449 783.665L5449 901.335C5449 997.644 5527.38 1076 5623.71 1076 5679.17 1076 5730.11 1050.54 5763.47 1006.16 5772.62 993.97 5770.16 976.684 5757.98 967.537Z" fill="#000000" fill-rule="evenodd" fill-opacity="1"/><path d="M6356.99 959.386C6356.99 911.752 6318.19 873 6270.49 873 6222.8 873 6184 911.752 6184 959.386 6184 974.611 6196.36 986.957 6211.61 986.957 6226.85 986.957 6239.21 974.614 6239.21 959.386 6239.21 942.156 6253.25 928.138 6270.5 928.138 6287.75 928.138 6301.79 942.156 6301.79 959.386 6301.79 969.167 6297.11 978.514 6289.27 984.384L6206.83 1046.14C6192.54 1056.85 6184.01 1073.89 6184.01 1091.72L6184.01 1106.43C6184.01 1121.65 6196.37 1134 6211.61 1134L6329.39 1134C6344.64 1134 6357 1121.66 6357 1106.43 6357 1091.2 6344.64 1078.86 6329.39 1078.86L6255.16 1078.86 6322.4 1028.5C6344.06 1012.27 6356.99 986.434 6356.99 959.386Z" fill="#000000" fill-rule="evenodd" fill-opacity="1"/></g></svg>