<?xml version="1.0" encoding="UTF-8"?>
<svg width="80px" height="70px" viewBox="0 0 80 70" version="1.1" xmlns="http://www.w3.org/2000/svg" xmlns:xlink="http://www.w3.org/1999/xlink">
    <title>Exit</title>
    <defs>
        <linearGradient x1="50%" y1="100%" x2="50%" y2="0%" id="linearGradient-1">
            <stop stop-color="#EACDA3" offset="0%"></stop>
            <stop stop-color="#E6B980" offset="100%"></stop>
        </linearGradient>
        <linearGradient x1="50%" y1="100%" x2="50%" y2="0%" id="linearGradient-2">
            <stop stop-color="#EACDA3" offset="0%"></stop>
            <stop stop-color="#E6B980" offset="100%"></stop>
        </linearGradient>
        <linearGradient x1="50%" y1="100%" x2="50%" y2="0%" id="linearGradient-3">
            <stop stop-color="#EACDA3" offset="0%"></stop>
            <stop stop-color="#E6B980" offset="100%"></stop>
        </linearGradient>
    </defs>
    <g id="Icons" stroke="none" stroke-width="1" fill="none" fill-rule="evenodd">
        <g id="Exit">
            <line x1="52.5" y1="35" x2="75.8333333" y2="35" id="Path" stroke="url(#linearGradient-1)" stroke-width="8" stroke-linejoin="round"></line>
            <polyline id="Path" stroke="url(#linearGradient-2)" stroke-width="8" stroke-linecap="round" stroke-linejoin="round" points="64.1666667 23.3333333 75.8333333 35 64.1666667 46.6666667"></polyline>
            <path d="M29.1666667,32.0833333 L52.5,32.0833333 L52.5,5.83333333 C52.5,2.61625 49.88375,0 46.6666667,0 L5.83333333,0 C2.61625,0 0,2.61625 0,5.83333333 L0,64.1666667 C0,67.38375 2.61625,70 5.83333333,70 L46.6666667,70 C49.88375,70 52.5,67.38375 52.5,64.1666667 L52.5,37.9166667 L29.1666667,37.9166667 C27.5566667,37.9166667 26.25,36.61 26.25,35 C26.25,33.39 27.5566667,32.0833333 29.1666667,32.0833333 Z" id="Path" fill="url(#linearGradient-3)" fill-rule="nonzero"></path>
        </g>
    </g>
</svg>