<?xml version="1.0" encoding="UTF-8"?>
<svg width="100px" height="128px" viewBox="0 0 100 128" version="1.1" xmlns="http://www.w3.org/2000/svg" xmlns:xlink="http://www.w3.org/1999/xlink">
    <title>Lock</title>
    <defs>
        <linearGradient x1="50%" y1="100%" x2="50%" y2="0%" id="linearGradient-1">
            <stop stop-color="#E9C18E" offset="0%"></stop>
            <stop stop-color="#E6B980" offset="100%"></stop>
        </linearGradient>
        <linearGradient x1="50%" y1="100%" x2="50%" y2="0%" id="linearGradient-2">
            <stop stop-color="#FFEFD9" offset="0%"></stop>
            <stop stop-color="#E6B980" offset="100%"></stop>
        </linearGradient>
    </defs>
    <g id="Icons" stroke="none" stroke-width="1" fill="none" fill-rule="evenodd">
        <g id="Lock" transform="translate(0.000000, 6.043103)">
            <path d="M22.6228632,48.6068376 L22.6228632,27.1474359 C22.6228632,12.1530021 34.7758654,0 49.7702991,0 C64.7647329,0 76.917735,12.1530021 76.917735,27.1474359" id="Path" stroke="url(#linearGradient-1)" stroke-width="11" stroke-linecap="round" stroke-linejoin="round"></path>
            <path d="M90.491453,121 L9.0491453,121 C4.04949252,121 0,116.950507 0,111.950855 L0,57.6559829 C0,52.6563301 4.04949252,48.6068376 9.0491453,48.6068376 L90.491453,48.6068376 C95.4911058,48.6068376 99.5405983,52.6563301 99.5405983,57.6559829 L99.5405983,111.950855 C99.5405983,116.950507 95.4911058,121 90.491453,121 Z" id="Path" fill="url(#linearGradient-2)" fill-rule="nonzero"></path>
        </g>
    </g>
</svg>