<?xml version="1.0" encoding="UTF-8"?>
<svg width="34px" height="43px" viewBox="0 0 34 43" version="1.1" xmlns="http://www.w3.org/2000/svg" xmlns:xlink="http://www.w3.org/1999/xlink">
    <title>FireSensor-On</title>
    <defs>
        <linearGradient x1="45.3463513%" y1="1.2490009e-14%" x2="50%" y2="121.511615%" id="linearGradient-1">
            <stop stop-color="#FF4E50" offset="0%"></stop>
            <stop stop-color="#FF554E" offset="30.8480411%"></stop>
            <stop stop-color="#F9D423" offset="100%"></stop>
        </linearGradient>
    </defs>
    <g id="Icons" stroke="none" stroke-width="1" fill="none" fill-rule="evenodd">
        <path d="M14.4277971,0 C16.7077547,6.11028632 15.5221768,9.43902439 12.9686243,12.0837752 C10.187076,15.0021209 5.85515663,17.1908802 2.80001347,21.4772004 C-1.25831103,27.1770944 -1.94229831,39.7168611 12.6950294,43 C6.5391439,39.7624602 5.2167685,30.369035 11.8742446,24.4867444 C10.1414769,30.1866384 13.3334175,33.8345705 17.3005437,32.5121951 C21.1764716,31.1898197 23.7300241,33.971368 23.6388258,37.1633086 C23.5932266,39.3520679 22.7268427,41.2216331 20.4924843,42.2704136 C30.022707,40.583245 33.8530357,32.6945917 33.8530357,26.6755037 C33.8530357,18.7412513 26.7851672,17.6468717 30.3419011,10.9893955 C26.10118,11.3541888 24.6420071,14.135737 25.0523995,18.6956522 C25.3259944,21.7051962 22.1796529,23.757158 19.8540962,22.3891835 C17.984531,21.2492047 18.0301301,19.0604454 19.6716996,17.4188759 C23.1828343,13.9533404 24.5508088,5.97348887 14.4277971,0 Z" id="FireSensor-On" fill="url(#linearGradient-1)" fill-rule="nonzero"></path>
    </g>
</svg>