<?xml version="1.0" encoding="UTF-8"?>
<svg width="72px" height="121px" viewBox="0 0 72 121" version="1.1" xmlns="http://www.w3.org/2000/svg" xmlns:xlink="http://www.w3.org/1999/xlink">
    <title>Lampada Off</title>
    <g id="Icons" stroke="none" stroke-width="1" fill="none" fill-rule="evenodd">
        <g id="Lampada-Off" fill-rule="nonzero">
            <path d="M71.5,33.7690294 C71.5,54.6502647 52.3482143,68.7716765 52.3482143,85.25 L19.1517857,85.25 C19.1517857,68.7716765 0,54.64525 0,33.7690294 C0,11.9901618 17.8647857,0 35.7295714,0 C53.6147857,0 71.5,12.0052059 71.5,33.7690294 Z" id="Path" fill="#979BAD"></path>
            <path d="M48.8125,90.75 L23.6041667,90.75 C22.2126667,90.75 21.0833333,91.982 21.0833333,93.5 C21.0833333,95.018 22.2126667,96.25 23.6041667,96.25 L48.8125,96.25 C50.204,96.25 51.3333333,95.018 51.3333333,93.5 C51.3333333,91.982 50.204,90.75 48.8125,90.75 Z" id="Path" fill="#5A6077"></path>
            <path d="M48.8125,100.833333 L23.6041667,100.833333 C22.2126667,100.833333 21.0833333,102.065333 21.0833333,103.583333 C21.0833333,105.101333 22.2126667,106.333333 23.6041667,106.333333 L48.8125,106.333333 C50.204,106.333333 51.3333333,105.101333 51.3333333,103.583333 C51.3333333,102.065333 50.204,100.833333 48.8125,100.833333 Z" id="Path" fill="#5A6077"></path>
            <path d="M50.4166667,110.916667 L22,110.916667 L29.4968333,119.280792 C30.4785,120.369792 31.8993333,121 33.3873333,121 L39.0345,121 C40.5225,121 41.9381667,120.369792 42.9198333,119.280792 L50.4166667,110.916667 L50.4166667,110.916667 Z" id="Path" fill="#5A6077"></path>
        </g>
    </g>
</svg>