<?xml version="1.0" encoding="UTF-8"?>
<svg width="71px" height="121px" viewBox="0 0 71 121" version="1.1" xmlns="http://www.w3.org/2000/svg" xmlns:xlink="http://www.w3.org/1999/xlink">
    <title>Lampada - On</title>
    <defs>
        <linearGradient x1="83.8742928%" y1="75.7294004%" x2="16.1257072%" y2="24.2389356%" id="linearGradient-1">
            <stop stop-color="#FBAB7E" offset="0%"></stop>
            <stop stop-color="#F7CE68" offset="100%"></stop>
        </linearGradient>
    </defs>
    <g id="Icons" stroke="none" stroke-width="1" fill="none" fill-rule="evenodd">
        <g id="Lampada---On" transform="translate(0.000000, 0.000000)" fill-rule="nonzero">
            <path d="M70.5461255,33.9505833 C70.5461255,54.9440833 51.6498419,69.1414167 51.6498419,85.7083333 L18.8962836,85.7083333 C18.8962836,69.1414167 0,54.9390417 0,33.9505833 C0,12.054625 17.6264533,0 35.2529067,0 C52.8995161,0 70.5461255,12.06975 70.5461255,33.9505833 Z" id="Path" fill="url(#linearGradient-1)"></path>
            <path d="M47.8705851,90.7483333 L22.6755403,90.7483333 C21.2847739,90.7483333 20.1560358,91.8776667 20.1560358,93.2691667 C20.1560358,94.6606667 21.2847739,95.79 22.6755403,95.79 L47.8705851,95.79 C49.2613516,95.79 50.3900896,94.6606667 50.3900896,93.2691667 C50.3900896,91.8776667 49.2613516,90.7483333 47.8705851,90.7483333 Z" id="Path" fill="#5A6077"></path>
            <path d="M47.8705851,100.83 L22.6755403,100.83 C21.2847739,100.83 20.1560358,101.959333 20.1560358,103.350833 C20.1560358,104.742333 21.2847739,105.871667 22.6755403,105.871667 L47.8705851,105.871667 C49.2613516,105.871667 50.3900896,104.742333 50.3900896,103.350833 C50.3900896,101.959333 49.2613516,100.83 47.8705851,100.83 Z" id="Path" fill="#5A6077"></path>
            <path d="M49.1303374,110.911667 L21.4157881,110.911667 L28.7273901,119.275792 C29.6848018,120.364792 31.0705293,120.995 32.5217638,120.995 L38.0294006,120.995 C39.4806352,120.995 40.8613237,120.364792 41.8187354,119.275792 L49.1303374,110.911667 L49.1303374,110.911667 Z" id="Path" fill="#5A6077"></path>
        </g>
    </g>
</svg>