<?xml version="1.0" encoding="UTF-8"?>
<svg width="57px" height="43px" viewBox="0 0 57 43" version="1.1" xmlns="http://www.w3.org/2000/svg" xmlns:xlink="http://www.w3.org/1999/xlink">
    <title>MotionSensor-Off</title>
    <g id="Icons" stroke="none" stroke-width="1" fill="none" fill-rule="evenodd">
        <g id="MotionSensor-Off" transform="translate(2.000000, -0.000000)">
            <g id="Group" transform="translate(0.000000, 8.205038)" stroke="#979BAD" stroke-width="3">
                <path d="M43.7,22 C45.2,19.2 46,16.1 46,12.8 C46,9.5 45.2,6.3 43.7,3.6" id="Path"></path>
                <path d="M9.3,3.6 C7.8,6.4 7,9.5 7,12.8 C7,16.1 7.8,19.3 9.3,22" id="Path"></path>
                <path d="M49.7,25.6 C51.8,21.8 53,17.4 53,12.8 C53,8.1 51.8,3.8 49.7,0" id="Path"></path>
                <path d="M3.3,0 C1.2,3.8 0,8.1 0,12.8 C0,17.5 1.2,21.8 3.3,25.6" id="Path"></path>
            </g>
            <g id="Group" transform="translate(14.093105, 0.000000)" fill="#979BAD" fill-rule="nonzero">
                <path d="M13.6068952,6.90503767 C15.5068952,7.10503767 17.2068952,5.60503767 17.3068952,3.70503767 C17.4068952,1.80503767 16.0068952,0.105037668 14.1068952,0.0050376684 C12.2068952,-0.0949623316 10.5068952,1.30503767 10.4068952,3.20503767 C10.3068952,5.10503767 11.7068952,6.80503767 13.6068952,6.90503767" id="Path"></path>
                <path d="M10.7068952,8.40503767 C11.4068952,7.90503767 12.2068952,7.60503767 13.1068952,7.70503767 C14.3068952,7.80503767 15.3068952,8.50503767 15.9068952,9.40503767 L19.4068952,16.4050377 L24.2068952,19.7050377 C24.6068952,20.0050377 24.9068952,20.5050377 24.8068952,21.1050377 C24.7068952,22.0050377 24.0068952,22.6050377 23.1068952,22.5050377 C22.8068952,22.5050377 22.6068952,22.4050377 22.4068952,22.3050377 L17.2068952,18.7050377 C17.0068952,18.6050377 16.9068952,18.4050377 16.8068952,18.2050377 L15.5068952,15.6050377 L13.9068952,22.5050377 L20.1068952,29.8050377 C20.2068952,30.0050377 20.3068952,30.3050377 20.4068952,30.6050377 L22.1068952,39.4050377 C22.1068952,39.6050377 22.1068952,39.7050377 22.1068952,39.9050377 C22.0068952,41.2050377 20.9068952,42.2050377 19.6068952,42.1050377 C18.5068952,42.0050377 17.7068952,41.2050377 17.5068952,40.2050377 L15.9068952,32.0050377 L10.9068952,26.5050377 L9.70689524,31.8050377 C9.70689524,32.1050377 9.30689524,32.6050377 9.20689524,32.8050377 L4.40689524,40.9050377 C3.90689524,41.6050377 3.10689524,42.1050377 2.20689524,42.0050377 C0.90689524,41.9050377 -0.0931047599,40.8050377 0.00689524012,39.5050377 C0.00689524012,39.1050377 0.20689524,38.7050377 0.30689524,38.5050377 L4.80689524,31.0050377 L8.50689524,14.5050377 L6.10689524,16.5050377 L4.80689524,22.4050377 C4.60689524,23.2050377 3.90689524,23.8050377 3.10689524,23.7050377 C2.20689524,23.6050377 1.60689524,22.9050377 1.70689524,22.0050377 C1.70689524,21.9050377 1.70689524,21.9050377 1.70689524,21.8050377 L3.20689524,14.9050377 C3.30689524,14.6050377 3.50689524,14.3050377 3.70689524,14.1050377 L10.7068952,8.40503767" id="Path"></path>
            </g>
        </g>
    </g>
</svg>