<svg width="1760" height="1356" xmlns="http://www.w3.org/2000/svg" xmlns:xlink="http://www.w3.org/1999/xlink" xml:space="preserve" overflow="hidden"><defs><clipPath id="clip0"><rect x="1320" y="559" width="1760" height="1356"/></clipPath><linearGradient x1="2199.5" y1="560" x2="2199.5" y2="1586" gradientUnits="userSpaceOnUse" spreadMethod="reflect" id="fill1"><stop offset="0" stop-color="#0070C0" stop-opacity="1"/><stop offset="0.015873" stop-color="#0071C1" stop-opacity="1"/><stop offset="0.031746" stop-color="#0073C2" stop-opacity="1"/><stop offset="0.047619" stop-color="#0075C4" stop-opacity="1"/><stop offset="0.0634921" stop-color="#0077C5" stop-opacity="1"/><stop offset="0.0793651" stop-color="#0079C6" stop-opacity="1"/><stop offset="0.0952381" stop-color="#007AC8" stop-opacity="1"/><stop offset="0.111111" stop-color="#007CC9" stop-opacity="1"/><stop offset="0.126984" stop-color="#007ECA" stop-opacity="1"/><stop offset="0.142857" stop-color="#0080CC" stop-opacity="1"/><stop offset="0.15873" stop-color="#0081CD" stop-opacity="1"/><stop offset="0.174603" stop-color="#0083CE" stop-opacity="1"/><stop offset="0.190476" stop-color="#0084CF" stop-opacity="1"/><stop offset="0.206349" stop-color="#0086D0" stop-opacity="1"/><stop offset="0.222222" stop-color="#0088D2" stop-opacity="1"/><stop offset="0.238095" stop-color="#0089D3" stop-opacity="1"/><stop offset="0.253968" stop-color="#008BD4" stop-opacity="1"/><stop offset="0.269841" stop-color="#008CD5" stop-opacity="1"/><stop offset="0.285714" stop-color="#008DD6" stop-opacity="1"/><stop offset="0.301587" stop-color="#008FD7" stop-opacity="1"/><stop offset="0.31746" stop-color="#0090D8" stop-opacity="1"/><stop offset="0.333333" stop-color="#0092D9" stop-opacity="1"/><stop offset="0.349206" stop-color="#0093DA" stop-opacity="1"/><stop offset="0.365079" stop-color="#0094DB" stop-opacity="1"/><stop offset="0.380952" stop-color="#0095DC" stop-opacity="1"/><stop offset="0.396825" stop-color="#0097DD" stop-opacity="1"/><stop offset="0.412698" stop-color="#0098DE" stop-opacity="1"/><stop offset="0.428571" stop-color="#0099DF" stop-opacity="1"/><stop offset="0.444444" stop-color="#009AE0" stop-opacity="1"/><stop offset="0.460317" stop-color="#009BE0" stop-opacity="1"/><stop offset="0.47619" stop-color="#009CE1" stop-opacity="1"/><stop offset="0.492063" stop-color="#009EE2" stop-opacity="1"/><stop offset="0.507937" stop-color="#009FE3" stop-opacity="1"/><stop offset="0.52381" stop-color="#00A0E4" stop-opacity="1"/><stop offset="0.539683" stop-color="#00A1E4" stop-opacity="1"/><stop offset="0.555556" stop-color="#00A2E5" stop-opacity="1"/><stop offset="0.571429" stop-color="#00A2E6" stop-opacity="1"/><stop offset="0.587302" stop-color="#00A3E6" stop-opacity="1"/><stop offset="0.603175" stop-color="#00A4E7" stop-opacity="1"/><stop offset="0.619048" stop-color="#00A5E8" stop-opacity="1"/><stop offset="0.634921" stop-color="#00A6E8" stop-opacity="1"/><stop offset="0.650794" stop-color="#00A7E9" stop-opacity="1"/><stop offset="0.666667" stop-color="#00A7E9" stop-opacity="1"/><stop offset="0.68254" stop-color="#00A8EA" stop-opacity="1"/><stop offset="0.698413" stop-color="#00A9EA" stop-opacity="1"/><stop offset="0.714286" stop-color="#00A9EB" stop-opacity="1"/><stop offset="0.730159" stop-color="#00AAEB" stop-opacity="1"/><stop offset="0.746032" stop-color="#00ABEC" stop-opacity="1"/><stop offset="0.761905" stop-color="#00ABEC" stop-opacity="1"/><stop offset="0.777778" stop-color="#00ACED" stop-opacity="1"/><stop offset="0.793651" stop-color="#00ACED" stop-opacity="1"/><stop offset="0.809524" stop-color="#00ADED" stop-opacity="1"/><stop offset="0.825397" stop-color="#00ADEE" stop-opacity="1"/><stop offset="0.84127" stop-color="#00ADEE" stop-opacity="1"/><stop offset="0.857143" stop-color="#00AEEE" stop-opacity="1"/><stop offset="0.873016" stop-color="#00AEEE" stop-opacity="1"/><stop offset="0.888889" stop-color="#00AEEF" stop-opacity="1"/><stop offset="0.904762" stop-color="#00AFEF" stop-opacity="1"/><stop offset="0.920635" stop-color="#00AFEF" stop-opacity="1"/><stop offset="0.936508" stop-color="#00AFEF" stop-opacity="1"/><stop offset="0.952381" stop-color="#00AFEF" stop-opacity="1"/><stop offset="0.968254" stop-color="#00AFEF" stop-opacity="1"/><stop offset="0.984127" stop-color="#00AFEF" stop-opacity="1"/><stop offset="1" stop-color="#00B0F0" stop-opacity="1"/></linearGradient></defs><g clip-path="url(#clip0)" transform="translate(-1320 -559)"><path d="M1980 1512 2419 1512 2419 1878 1980 1878Z" fill="#CCD1D9" fill-rule="evenodd" fill-opacity="1"/><path d="M2639 1841.5C2639 1800.87 2606.23 1768 2565.78 1768L1833.23 1768C1792.77 1768 1760 1800.87 1760 1841.5L1760 1915 2639 1915 2639 1841.5Z" fill="#434A54" fill-rule="evenodd" fill-opacity="1"/><path d="M2799.96 633.591 1599.09 633C1558.84 633 1330.05 1474.12 1321.57 1513.54L1321.57 1586.81C1313.19 1626.13 1339.18 1658.35 1379.44 1658.35L3019.56 1659C3059.83 1659 3085.8 1626.77 3077.43 1587.45L3078.94 1526.97C3070.5 1487.54 2840.22 633.591 2799.96 633.591Z" fill="#0171C0" fill-rule="evenodd" fill-opacity="1"/><path d="M2799.96 560.643 1599.09 560C1558.84 560 1518.95 592.227 1510.52 631.652L1321.57 1513.81C1313.19 1553.24 1339.18 1585.46 1379.44 1585.46L3019.56 1586C3059.83 1586 3085.8 1553.78 3077.43 1514.45L2888.48 632.244C2880.05 592.87 2840.22 560.643 2799.96 560.643Z" fill="url(#fill1)" fill-rule="evenodd"/><path d="M2963.35 981.624 2686.14 980.977 2667.88 823.134 2929.53 823.725 2913.86 750.545 2659.4 749.899 2637.39 560 2563.73 560 2585.69 749.899 2376.92 749.899 2369.3 560 2296.07 560 2303.64 749.899 2094.66 749.899 2101.96 560 2028.68 560 2021.43 749.899 1811.53 749.899 1832.68 560 1759.03 560 1737.88 749.899 1485.15 749.899 1469.47 823.13 1729.78 823.13 1712.22 980.974 1435.65 980.974 1419.97 1054.21 1704.07 1054.21 1683.72 1237.23 1380.73 1237.23 1365 1310.44 1675.55 1310.44 1645.01 1585 1718.66 1585 1749.21 1310.44 2000.01 1310.44 1989.55 1585 2062.77 1585 2073.29 1310.44 2326.08 1310.44 2337.09 1585 2410.36 1585 2399.36 1310.44 2650.6 1310.44 2682.38 1585 2756.03 1585 2724.25 1310.44 3034 1311.08 3018.33 1237.82 2715.77 1237.24 2694.62 1054.21 2979.08 1054.8 2963.35 981.624ZM2002.81 1237.24 1757.37 1237.24 1777.72 1054.21 2009.84 1054.21 2002.81 1237.24ZM2012.63 980.981 1785.87 980.981 1803.43 823.137 2018.64 823.137 2012.63 980.981ZM2091.87 823.134 2306.6 823.134 2312.93 980.977 2085.85 980.977 2091.87 823.134ZM2076.08 1237.24 2083.06 1054.21 2315.83 1054.21 2323.13 1237.24 2076.08 1237.24ZM2379.82 823.134 2594.12 823.134 2612.43 980.977 2386.15 980.977 2379.82 823.134ZM2396.46 1237.24 2389.11 1054.21 2620.91 1054.21 2642.11 1237.24 2396.46 1237.24Z" fill="#002060" fill-rule="evenodd" fill-opacity="1"/></g></svg>