<?xml version="1.0" encoding="UTF-8"?>
<svg width="121px" height="92px" viewBox="0 0 121 92" version="1.1" xmlns="http://www.w3.org/2000/svg" xmlns:xlink="http://www.w3.org/1999/xlink">
    <title>Group 13</title>
    <defs>
        <linearGradient x1="50%" y1="-2.56454913%" x2="50%" y2="105.987824%" id="linearGradient-1">
            <stop stop-color="#C6292B" offset="0%"></stop>
            <stop stop-color="#D57043" offset="100%"></stop>
        </linearGradient>
        <linearGradient x1="100%" y1="50.8680056%" x2="0%" y2="49.1309262%" id="linearGradient-2">
            <stop stop-color="#FBAB7E" offset="0%"></stop>
            <stop stop-color="#F7CE68" offset="100%"></stop>
        </linearGradient>
    </defs>
    <g id="Icons" stroke="none" stroke-width="1" fill="none" fill-rule="evenodd">
        <g id="Group-13">
            <path d="M91.3188256,60.9311486 C91.2703043,60.8755379 91.2356463,60.8268785 91.1801933,60.7782191 L88.8026495,58.470374 C90.7781597,58.0185369 92.8992338,56.3641178 92.8992338,54.6610394 C92.8992338,52.6799073 90.1543144,51.9778219 87.8114286,51.9778219 C85.3645686,51.9778219 85.0803724,53.6600463 85.0526459,54.8487256 L78.9112352,48.9122807 C77.6635446,47.6749421 75.2929323,46.7017544 73.5253706,46.7017544 L61.5614035,46.7017544 L61.5614035,46.7017544 L49.5974364,46.7017544 C47.8298747,46.7017544 45.4661941,47.6749421 44.2115718,48.9122807 L38.0701611,54.8487256 C38.035503,53.6600463 37.7513068,51.9778219 35.3113784,51.9778219 C32.9684927,51.9778219 30.2235732,52.6799073 30.2235732,54.6610394 C30.2235732,56.3641178 32.3515789,58.0185369 34.3270892,58.470374 L31.9495453,60.7712678 C31.8940924,60.8199272 31.8594343,60.8755379 31.810913,60.9241973 C29.2600788,63.1138696 27.5964912,67.1595498 27.5964912,70.0999669 L27.5964912,78.8308507 C27.5964912,80.9510096 28.428285,82.8695796 29.7730183,84.3085071 L29.7730183,87.6868587 C29.7730183,89.6679907 31.4227426,91.2807018 33.4606373,91.2807018 L37.9176656,91.2807018 C39.9486287,91.2807018 41.598353,89.6679907 41.598353,87.6868587 L41.598353,86.8179411 L61.5614035,86.8179411 L61.5614035,86.8179411 L81.524454,86.8179411 L81.524454,87.6868587 C81.524454,89.6679907 83.1741783,91.2807018 85.212073,91.2807018 L89.6691013,91.2807018 C91.7000644,91.2807018 93.3497888,89.6679907 93.3497888,87.6868587 L93.3497888,84.3015558 C94.694522,82.8695796 95.5263158,80.9440583 95.5263158,78.8308507 L95.5263158,70.0999669 C95.5263158,67.1595498 93.8627282,63.1138696 91.3188256,60.9311486 Z M46.4712782,51.5468388 C47.33773,50.8238994 48.8488221,50.2747435 49.5974364,50.2747435 L61.5614035,50.2747435 L61.5614035,50.2747435 L73.5253706,50.2747435 C74.2809166,50.2747435 75.785077,50.8238994 76.6515288,51.5468388 L84.7060652,59.3740483 L61.5614035,59.3740483 L61.5614035,59.3740483 L38.4167419,59.3740483 L46.4712782,51.5468388 Z M30.3622055,68.7792122 C30.3622055,66.6312479 32.0396563,64.8864614 34.1122091,64.8864614 C36.1847619,64.8864614 42.9500179,68.8695796 42.9500179,71.0175439 C42.9500179,73.1655081 36.1847619,72.6719629 34.1122091,72.6719629 C32.0396563,72.6650116 30.3622055,70.9271764 30.3622055,68.7792122 Z M41.6052846,82.9947037 L40.8913283,82.9947037 L40.177372,82.9947037 L35.9421554,83.0016551 C34.7637809,82.633234 33.9389187,82.2092023 33.3497315,81.7434624 C33.051672,81.5140682 32.8229288,81.2707713 32.6496384,81.0274743 C32.4694164,80.7841774 32.3377157,80.5478318 32.2545363,80.3045349 C31.7277336,78.8099967 32.8159971,77.4405826 32.8159971,77.4405826 L40.0456713,77.4405826 L44.8631436,82.9877524 L41.6052846,82.9947037 L41.6052846,82.9947037 Z M71.9588256,82.9947037 L61.5614035,82.9947037 L61.5614035,82.9947037 L51.170913,82.9947037 C49.0013176,82.9947037 47.247619,81.2290632 47.247619,79.060245 L61.5614035,79.060245 L61.5614035,79.060245 L75.8821196,79.060245 C75.8821196,81.2360146 74.1214894,82.9947037 71.9588256,82.9947037 Z M72.8668672,76.3770275 L61.5614035,76.3770275 L61.5614035,76.3770275 L50.2559398,76.3770275 C47.8991908,76.3770275 45.9860652,73.4644158 45.9860652,69.8705727 L61.5614035,69.8705727 L61.5614035,69.8705727 L77.1367419,69.8705727 C77.1367419,73.4644158 75.2236162,76.3770275 72.8668672,76.3770275 Z M90.8752023,80.3114863 C90.7920229,80.5478318 90.6603222,80.7911288 90.4801003,81.0344257 C90.3068099,81.2777226 90.0780666,81.5140682 89.7800072,81.7504138 C89.1977515,82.2092023 88.3659578,82.6401854 87.1875832,83.0086064 L82.9523666,83.0016551 L82.2384103,83.0016551 L81.524454,83.0016551 L78.2596634,83.0016551 L83.0840673,77.4544589 L90.3137415,77.4544589 C90.3137415,77.4475339 91.402005,78.816948 90.8752023,80.3114863 Z M89.0175295,72.6650116 C86.9519083,72.6650116 80.1866523,73.1585568 80.1866523,71.0105925 C80.1866523,68.8626283 86.9519083,64.8795101 89.0175295,64.8795101 C91.0900823,64.8795101 92.7675331,66.6242966 92.7675331,68.7722608 C92.7675331,70.9271764 91.0900823,72.6650116 89.0175295,72.6650116 Z" id="Shape" fill="url(#linearGradient-1)" fill-rule="nonzero"></path>
            <polygon id="Triangle" fill="#A5855F" points="60.5 0 121 21.2280702 0 21.2280702"></polygon>
            <path d="M0,25.4736842 L6.36842105,25.4736842 L6.36842105,87.6578947 C6.36842105,88.4863219 5.69684818,89.1578947 4.86842105,89.1578947 L1.5,89.1578947 C0.671572875,89.1578947 3.23497668e-16,88.4863219 0,87.6578947 L0,25.4736842 L0,25.4736842 Z" id="Rectangle" fill="#A2805D"></path>
            <path d="M114.631579,25.4736842 L121,25.4736842 L121,87.6578947 C121,88.4863219 120.328427,89.1578947 119.5,89.1578947 L116.131579,89.1578947 C115.303152,89.1578947 114.631579,88.4863219 114.631579,87.6578947 L114.631579,25.4736842 L114.631579,25.4736842 Z" id="Rectangle" fill="#A2805D"></path>
            <rect id="Rectangle" fill="#FFFFFF" x="8.49122807" y="46.7017544" width="101.894737" height="4.24561404"></rect>
            <rect id="Rectangle" stroke="#A5855F" fill="#A5855F" x="0.5" y="21.7280702" width="120" height="3.24561404"></rect>
            <path d="M14.8282855,29.3234997 L105.902169,29.3234997 C106.350728,29.3234997 106.744408,29.6221879 106.865218,30.0541723 L111.648897,47.1594354 C111.797642,47.6913125 111.487052,48.2430661 110.955175,48.3918115 C110.8675,48.4163309 110.776887,48.4287628 110.685848,48.4287628 L9.35616731,48.4287628 C8.80388256,48.4287628 8.35616731,47.9810476 8.35616731,47.4287628 C8.35616731,47.3253496 8.37220819,47.2225621 8.40371785,47.1240662 L13.875836,30.018803 C14.0083485,29.604583 14.3933857,29.3234997 14.8282855,29.3234997 Z" id="Path-4" fill="url(#linearGradient-2)"></path>
            <rect id="Rectangle" fill="#FFFFFF" x="53.0701754" y="44.5789474" width="12.7368421" height="2.12280702" rx="1.06140351"></rect>
        </g>
    </g>
</svg>