<?xml version="1.0" encoding="UTF-8"?>
<svg width="121px" height="90px" viewBox="0 0 121 90" version="1.1" xmlns="http://www.w3.org/2000/svg" xmlns:xlink="http://www.w3.org/1999/xlink">
    <title>Group 13 2</title>
    <g id="Icons" stroke="none" stroke-width="1" fill="none" fill-rule="evenodd">
        <g id="Group-13">
            <polygon id="Triangle" fill="#5A6077" points="60.5 0 121 21.2280702 0 21.2280702"></polygon>
            <path d="M0,25.4736842 L6.36842105,25.4736842 L6.36842105,87.6578947 C6.36842105,88.4863219 5.69684818,89.1578947 4.86842105,89.1578947 L1.5,89.1578947 C0.671572875,89.1578947 3.55836393e-15,88.4863219 0,87.6578947 L0,25.4736842 L0,25.4736842 Z" id="Rectangle" fill="#5A6077"></path>
            <path d="M114.631579,25.4736842 L121,25.4736842 L121,87.6578947 C121,88.4863219 120.328427,89.1578947 119.5,89.1578947 L116.131579,89.1578947 C115.303152,89.1578947 114.631579,88.4863219 114.631579,87.6578947 L114.631579,25.4736842 L114.631579,25.4736842 Z" id="Rectangle" fill="#5A6077"></path>
            <rect id="Rectangle" fill="#FFFFFF" x="8.49122807" y="46.7017544" width="101.894737" height="4.24561404"></rect>
            <rect id="Rectangle" stroke="#596079" fill="#5A6077" x="0.5" y="21.7280702" width="120" height="3.24561404"></rect>
            <path d="M8.98633438,27.3234997 L111.003878,27.3234997 C111.556163,27.3234997 112.003878,27.7712149 112.003878,28.3234997 L112.003878,88.3234997 C112.003878,88.8757844 111.556163,89.3234997 111.003878,89.3234997 L8.98633438,89.3234997 C8.43404964,89.3234997 7.98633438,88.8757844 7.98633438,88.3234997 L7.98633438,28.3234997 C7.98633438,27.7712149 8.43404964,27.3234997 8.98633438,27.3234997 Z" id="Path-4" fill="#979BAD"></path>
            <rect id="Rectangle" fill="#FFFFFF" x="53.0701754" y="84.5789474" width="12.7368421" height="2.12280702" rx="1"></rect>
        </g>
    </g>
</svg>