<svg width="1650" height="1650" xmlns="http://www.w3.org/2000/svg" xmlns:xlink="http://www.w3.org/1999/xlink" xml:space="preserve" overflow="hidden"><defs><clipPath id="clip0"><rect x="3075" y="1654" width="1650" height="1650"/></clipPath><clipPath id="clip1"><rect x="3078" y="1658" width="1647" height="1647"/></clipPath><clipPath id="clip2"><rect x="3078" y="1658" width="1647" height="1647"/></clipPath><clipPath id="clip3"><rect x="3078" y="1658" width="1647" height="1647"/></clipPath></defs><g clip-path="url(#clip0)" transform="translate(-3075 -1654)"><g clip-path="url(#clip1)"><g clip-path="url(#clip2)"><g clip-path="url(#clip3)"><path d="M245.902 0 245.902 1643 1399.1 1645 1399.1 0 245.902 0ZM354.348 1534.74 354.348 108.453 1290.64 108.453 1290.64 303.699 1253.59 303.699 1253.59 144.634 391.409 144.634 391.409 1500.28 1253.59 1500.28 1253.59 1341.22 1290.65 1341.22 1290.65 1536.36 354.348 1534.74ZM1253.59 472.396 1290.64 472.396 1290.64 1172.51 1253.59 1172.51 1253.59 472.396ZM569.749 822.455C569.749 853.894 544.256 879.387 512.811 879.387 481.366 879.387 455.873 853.894 455.873 822.455 455.873 791.01 481.366 765.517 512.811 765.517 544.256 765.517 569.749 791.01 569.749 822.455Z" fill="#979BAD" fill-rule="nonzero" fill-opacity="1" transform="matrix(1.00061 0 0 1 3079 1659)"/></g></g></g><rect x="3327" y="1659" width="1148" height="109" fill="#5A6077" fill-opacity="1"/><rect x="3327" y="3195" width="1148" height="109" fill="#5A6077" fill-opacity="1"/><rect x="3327" y="1768" width="104" height="1427" fill="#5A6077" fill-opacity="1"/><rect x="4371" y="1768" width="104" height="1427" fill="#5A6077" fill-opacity="1"/></g></svg>