<?xml version="1.0" encoding="UTF-8"?>
<svg width="72px" height="50px" viewBox="0 0 72 50" version="1.1" xmlns="http://www.w3.org/2000/svg" xmlns:xlink="http://www.w3.org/1999/xlink">
    <title>Group 20</title>
    <defs>
        <linearGradient x1="50%" y1="-2.56454913%" x2="50%" y2="105.987824%" id="linearGradient-1">
            <stop stop-color="#C6292B" offset="0%"></stop>
            <stop stop-color="#D57043" offset="100%"></stop>
        </linearGradient>
        <linearGradient x1="50%" y1="-2.56454913%" x2="50%" y2="105.987824%" id="linearGradient-2">
            <stop stop-color="#C6292B" offset="0%"></stop>
            <stop stop-color="#D57043" offset="100%"></stop>
        </linearGradient>
        <linearGradient x1="50%" y1="-2.56454913%" x2="50%" y2="105.987824%" id="linearGradient-3">
            <stop stop-color="#C6292B" offset="0%"></stop>
            <stop stop-color="#D57043" offset="100%"></stop>
        </linearGradient>
        <linearGradient x1="50%" y1="-2.56454913%" x2="50%" y2="105.987824%" id="linearGradient-4">
            <stop stop-color="#C6292B" offset="0%"></stop>
            <stop stop-color="#D57043" offset="100%"></stop>
        </linearGradient>
    </defs>
    <g id="Icons" stroke="none" stroke-width="1" fill="none" fill-rule="evenodd">
        <g id="Group-20" transform="translate(3.005404, 2.998458)">
            <path d="M32.9476458,6.79899104 C41.5822454,6.79899104 48.5819713,13.798717 48.5819713,22.4333166 L48.5819713,39.1843797 L48.5819713,39.1843797 L17.3133203,39.1843797 L17.3133203,22.4333166 C17.3133203,13.798717 24.3130462,6.79899104 32.9476458,6.79899104 Z" id="Rectangle" fill="url(#linearGradient-1)"></path>
            <rect id="Rectangle" fill="#969BAF" x="13.9631077" y="37.7884577" width="37.6898919" height="9.21308469" rx="4.60654235"></rect>
            <path d="M53.3083586,33.5612811 C55.146818,29.3254578 56.1266618,24.6355072 56.1252914,19.6426931 C56.123918,14.6498789 55.1414552,9.80809339 53.3007092,5.72255971" id="Path" stroke="url(#linearGradient-2)" stroke-width="4" stroke-linecap="round" transform="translate(54.713000, 19.641920) rotate(-5.000000) translate(-54.713000, -19.641920) "></path>
            <path d="M12.6884837,5.72255971 C10.8476962,9.95939079 9.86527493,14.6498789 9.8639016,19.6426931 C9.86253115,24.6355072 10.8423334,29.4767552 12.6808344,33.5612811" id="Path" stroke="url(#linearGradient-2)" stroke-width="4" stroke-linecap="round" transform="translate(11.276193, 19.641920) rotate(5.000000) translate(-11.276193, -19.641920) "></path>
            <path d="M60.3619272,38.9039811 C62.8733816,33.1444795 64.3075702,26.4751792 64.3056562,19.5023176 C64.3036967,12.3778721 62.8658844,5.85936902 60.3512645,0.0984906695" id="Path" stroke="url(#linearGradient-3)" stroke-width="4" stroke-linecap="round" transform="translate(62.328460, 19.501236) rotate(-5.000000) translate(-62.328460, -19.501236) "></path>
            <path d="M5.63791528,0.0987930613 C3.12329537,5.8596261 1.68548313,12.3780779 1.68352354,19.5024673 C1.68156795,26.6268568 3.1157982,33.1445219 5.62725264,38.9039782" id="Path" stroke="url(#linearGradient-4)" stroke-width="4" stroke-linecap="round" transform="translate(3.660719, 19.501386) rotate(5.000000) translate(-3.660719, -19.501386) "></path>
        </g>
    </g>
</svg>