<svg width="1036" height="1475" xmlns="http://www.w3.org/2000/svg" xmlns:xlink="http://www.w3.org/1999/xlink" xml:space="preserve" overflow="hidden"><defs><clipPath id="clip0"><rect x="1819" y="582" width="1036" height="1475"/></clipPath></defs><g clip-path="url(#clip0)" transform="translate(-1819 -582)"><path d="M2828.5 1098C2828.5 1368.9 2608.9 1588.5 2338 1588.5 2067.1 1588.5 1847.5 1368.9 1847.5 1098 1847.5 827.104 2067.1 607.5 2338 607.5 2608.9 607.5 2828.5 827.104 2828.5 1098Z" stroke="#979BAD" stroke-width="49.0417" stroke-linecap="round" stroke-linejoin="miter" stroke-miterlimit="8" stroke-opacity="1" fill="none" fill-rule="evenodd"/><path d="M2485 1097.5C2485 1178.96 2418.96 1245 2337.5 1245 2256.04 1245 2190 1178.96 2190 1097.5 2190 1016.04 2256.04 950 2337.5 950 2418.96 950 2485 1016.04 2485 1097.5Z" fill="#5A6077" fill-rule="evenodd" fill-opacity="1"/><path d="M2518.77 724.038C2426.99 678.989 2318.68 666.967 2213.15 699.163 2180.04 709.275 2149.43 723.5 2121 740.491 2420.4 790.585 2249.52 887.735 2279.74 961.039 2297.54 953.841 2316.72 950.29 2336.1 950.388 2336.61 950.388 2337.15 950.315 2337.69 950.315 2338.04 950.315 2338.38 950.364 2338.72 950.364 2340.91 950.413 2343.06 950.535 2345.25 950.682 2392.88 953.106 2434.55 977.908 2459.69 1015 2632.06 908.203 2642.97 798.395 2518.77 724.038Z" fill="#979BAD" fill-rule="evenodd" fill-opacity="1"/><path d="M2482.99 1121.45C2476.47 1163.05 2452.33 1201.59 2413.49 1224.97 2391.66 1238.11 2367.77 1244.91 2344 1245.89 2346.33 1451.26 2435.55 1517.82 2564.22 1448.56 2681.32 1372.4 2753.98 1240.96 2754 1099 2556.84 1330.33 2561.45 1133.38 2482.99 1121.45Z" fill="#979BAD" fill-rule="evenodd" fill-opacity="1"/><path d="M2232.03 1200.02C2231.27 1199.24 2230.56 1198.38 2229.8 1197.57 2227.13 1194.7 2224.55 1191.79 2222.12 1188.72 2221.19 1187.55 2220.33 1186.32 2219.42 1185.12 2217.31 1182.3 2215.3 1179.44 2213.41 1176.47 2212.48 1175.03 2211.6 1173.53 2210.74 1172.06 2209.04 1169.22 2207.47 1166.33 2205.98 1163.36 2205.14 1161.7 2204.33 1160.03 2203.55 1158.34 2202.2 1155.4 2201 1152.41 2199.84 1149.37 2199.16 1147.56 2198.47 1145.79 2197.86 1143.95 2196.82 1140.87 2195.97 1137.68 2195.13 1134.52 2194.64 1132.68 2194.13 1130.87 2193.71 1128.98 2192.95 1125.53 2192.41 1121.97 2191.89 1118.42 2191.65 1116.76 2191.33 1115.14 2191.13 1113.47 2190.57 1108.2 2190.22 1102.89 2190.22 1097.5 2190.22 1091.66 2190.67 1085.95 2191.3 1080.29 2191.5 1078.55 2191.82 1076.86 2192.09 1075.15 2192.7 1071.18 2193.44 1067.26 2194.35 1063.41 2194.79 1061.6 2195.23 1059.81 2195.75 1058.02 2196.82 1054.12 2198.1 1050.3 2199.5 1046.53 2200.04 1045.08 2200.5 1043.64 2201.07 1042.22 2203.16 1037.07 2205.49 1032.05 2208.11 1027.19L2208.11 1027.19C2031.21 923.74 1928.24 965.861 1921 1111.41 1925.81 1256.97 2005.2 1383.33 2122.41 1454 2026.08 1166.28 2192.31 1271.37 2243 1210.29 2243 1210.29 2242.95 1210.26 2242.95 1210.24 2239.15 1207 2235.52 1203.6 2232.03 1200.02Z" fill="#979BAD" fill-rule="evenodd" fill-opacity="1"/><path d="M2141 1956 2534 1956 2534 2029 2141 2029Z" fill="#5A6077" fill-rule="evenodd" fill-opacity="1"/><path d="M2239 1686 2436 1686 2436 1833 2239 1833Z" fill="#5A6077" fill-rule="evenodd" fill-opacity="1"/><path d="M2288 1833 2387 1833 2387 1956 2288 1956Z" fill="#979BAD" fill-rule="evenodd" fill-opacity="1"/><path d="M2288 1588 2387 1588 2387 1686 2288 1686Z" fill="#979BAD" fill-rule="evenodd" fill-opacity="1"/><path d="M2068.5 2029.5 2607.5 2029.5" stroke="#38454F" stroke-width="49.0417" stroke-linecap="round" stroke-linejoin="round" stroke-miterlimit="10" stroke-opacity="1" fill="none" fill-rule="evenodd"/></g></svg>